<?xml version="1.0" standalone="no"?>
<!DOCTYPE svg PUBLIC "-//W3C//DTD SVG 20010904//EN"
 "http://www.w3.org/TR/2001/REC-SVG-20010904/DTD/svg10.dtd">
<svg version="1.0" xmlns="http://www.w3.org/2000/svg"
 width="453.000000pt" height="600.000000pt" viewBox="0 0 453.000000 600.000000"
 preserveAspectRatio="xMidYMid meet">

<g transform="translate(0.000000,600.000000) scale(0.100000,-0.100000)"
fill="#000000" stroke="none">
<path d="M4120 5932 c0 -10 333 -24 355 -15 44 16 -4 23 -170 23 -102 0 -185
-4 -185 -8z"/>
<path d="M4117 5883 l42 -4 1 -364 0 -364 -42 -4 c-24 -2 45 -4 152 -5 141 -2
199 1 208 10 17 17 17 709 0 726 -9 9 -67 12 -207 10 -108 -1 -177 -3 -154 -5z"/>
<path d="M990 5807 c12 -9 15 -35 15 -112 0 -55 -4 -103 -10 -107 -6 -5 -5 -8
3 -8 21 0 69 56 75 88 9 46 -10 99 -47 127 -32 25 -65 36 -36 12z"/>
<path d="M2921 5608 c-1 -45 -3 -86 -4 -91 -4 -20 22 -17 42 4 42 46 33 131
-18 158 -17 10 -18 5 -20 -71z"/>
<path d="M3262 5482 c-36 -15 -58 -28 -51 -33 8 -4 5 -10 -7 -18 -11 -6 -14
-11 -8 -11 12 0 134 77 134 85 0 3 -1 5 -2 4 -2 0 -31 -13 -66 -27z"/>
<path d="M883 5460 c-1 -11 3 -19 9 -17 7 1 12 -23 14 -66 2 -56 0 -68 -12
-63 -32 12 -11 -5 34 -28 74 -38 126 -49 172 -36 35 9 106 57 98 66 -2 1 -21
-1 -43 -6 -25 -6 -55 -5 -80 1 -22 6 -48 11 -57 12 -9 1 -15 3 -13 6 3 2 -12
23 -33 46 -55 62 -72 84 -72 95 0 19 -16 10 -17 -10z"/>
<path d="M2807 5425 c-8 -8 -16 -13 -18 -12 -3 1 -1 -2 3 -7 5 -6 8 -18 8 -28
0 -29 26 -32 59 -9 27 19 29 24 19 46 -13 28 -48 33 -71 10z"/>
<path d="M1877 5379 c7 -7 15 -10 18 -7 3 3 -2 9 -12 12 -14 6 -15 5 -6 -5z"/>
<path d="M2964 5282 c-1 -52 1 -67 6 -47 10 40 12 125 3 125 -5 0 -9 -35 -9
-78z"/>
<path d="M1900 5342 c0 -5 10 -17 23 -28 l22 -19 -19 23 c-11 12 -14 22 -9 22
6 0 20 -16 32 -36 12 -19 24 -33 29 -31 4 3 7 -10 7 -28 0 -18 -2 -33 -5 -33
-16 2 -70 -16 -70 -23 0 -17 22 -20 45 -5 30 20 45 20 81 1 16 -8 41 -15 55
-15 38 0 55 -24 41 -55 -15 -32 -42 -32 -80 0 -17 14 -43 25 -59 25 -35 0 -76
-27 -69 -46 3 -8 0 -13 -7 -11 -8 1 -13 -14 -14 -43 -1 -36 0 -40 7 -20 6 19
8 13 7 -27 -2 -54 -12 -70 -20 -30 l-4 22 -2 -23 c-1 -27 40 -46 82 -38 15 3
38 1 50 -3 32 -13 61 -74 53 -115 -4 -17 -8 -50 -11 -73 -2 -23 -9 -51 -14
-62 -15 -26 -14 -78 1 -87 33 -21 157 211 165 311 6 66 -20 174 -60 249 -34
65 -112 151 -168 185 -34 21 -89 28 -89 13z"/>
<path d="M1870 5330 c0 -4 11 -17 25 -30 28 -26 28 -53 -1 -74 -17 -13 -14
-14 24 -4 23 6 42 15 42 21 0 5 -20 28 -45 51 -25 24 -45 39 -45 36z"/>
<path d="M1970 5169 c-13 -9 -12 -10 3 -5 22 7 66 -10 94 -36 24 -22 53 -18
53 7 0 9 -9 15 -25 15 -14 0 -42 7 -62 15 -42 18 -44 18 -63 4z"/>
<path d="M1890 5151 c0 -6 5 -11 11 -11 8 0 7 -6 -2 -17 -11 -15 -10 -14 9 1
12 11 22 21 22 24 0 3 -3 2 -7 -1 -3 -4 -12 -2 -20 4 -9 9 -13 8 -13 0z"/>
<path d="M4190 5099 c-30 -5 -59 -11 -65 -13 -5 -3 75 -5 178 -5 147 -1 188 2
185 12 -6 15 -216 19 -298 6z"/>
<path d="M1863 5020 c0 -25 2 -35 4 -22 2 12 2 32 0 45 -2 12 -4 2 -4 -23z"/>
<path d="M2951 5004 c0 -11 3 -14 6 -6 3 7 2 16 -1 19 -3 4 -6 -2 -5 -13z"/>
<path d="M2960 4960 c0 -9 5 -21 12 -28 8 -8 8 -15 0 -25 -7 -8 -12 -32 -12
-53 0 -21 -2 -55 -3 -74 -1 -19 3 -52 10 -73 7 -21 9 -35 4 -33 -5 3 -2 -20 5
-52 21 -86 42 -226 50 -332 l8 -95 13 65 c20 97 19 357 -1 455 -26 125 -85
294 -86 245z"/>
<path d="M1886 4901 c-4 -5 -2 -12 4 -16 15 -9 14 -455 -2 -455 -6 0 -9 -3 -6
-6 10 -9 120 51 165 90 52 46 115 139 143 212 31 85 18 75 -18 -14 -52 -127
-114 -184 -143 -131 -11 21 -9 50 10 144 6 28 13 64 17 81 4 20 0 42 -10 63
-15 29 -20 31 -70 31 -30 0 -61 3 -69 6 -8 3 -18 1 -21 -5z"/>
<path d="M882 4867 c1 -22 4 -33 9 -25 4 6 5 16 2 22 -3 5 -2 7 3 3 6 -3 7
-41 3 -89 -4 -55 -3 -88 5 -97 9 -12 8 -13 -3 -7 -7 5 10 -27 40 -70 29 -43
77 -125 106 -181 29 -57 53 -98 53 -92 0 37 -46 224 -74 302 -29 84 -89 198
-130 252 -14 19 -15 18 -14 -18z"/>
<path d="M861 4741 c-8 -14 -7 -22 7 -32 14 -11 15 -11 5 1 -8 9 -9 19 -2 32
5 10 7 18 5 18 -3 0 -10 -9 -15 -19z"/>
<path d="M3912 4610 c-29 -121 -27 -135 4 -40 13 41 23 89 22 105 -2 21 -10 1
-26 -65z"/>
<path d="M4031 4376 c-2 -20 33 -146 41 -146 5 0 7 8 4 18 -27 87 -44 136 -45
128z"/>
<path d="M2613 3906 c15 -11 16 -18 8 -34 -10 -18 -6 -22 34 -38 25 -9 48 -14
51 -11 7 7 -60 73 -88 87 -21 10 -22 10 -5 -4z"/>
<path d="M776 3851 c6 -7 9 -50 7 -111 -4 -111 1 -118 48 -71 49 49 32 144
-33 176 -18 10 -28 12 -22 6z"/>
<path d="M2583 3825 c-9 -10 -8 -14 5 -18 9 -3 25 -8 35 -12 17 -7 18 -6 6 13
-17 28 -31 33 -46 17z"/>
<path d="M4026 3786 c3 -7 23 -28 45 -46 33 -26 39 -37 37 -63 -1 -26 -6 -32
-25 -33 -43 -3 -57 -12 -43 -29 11 -13 17 -12 47 6 l34 21 49 -21 c27 -12 60
-21 73 -21 37 0 52 -23 35 -57 -18 -38 -38 -39 -83 -3 -51 41 -95 41 -132 0
-22 -25 -27 -40 -26 -78 l1 -47 -8 40 c-7 39 -7 39 -9 -17 -1 -37 3 -58 12
-61 9 -3 9 -7 -1 -19 -10 -13 -9 -17 10 -22 13 -3 47 -6 75 -6 50 0 54 -2 79
-40 22 -32 25 -47 20 -82 -3 -24 -7 -61 -10 -83 -2 -22 -9 -53 -15 -68 -16
-43 -14 -87 6 -94 27 -10 66 47 122 178 45 104 51 127 51 187 0 170 -100 355
-239 444 -48 30 -115 39 -105 14z"/>
<path d="M2550 3782 c0 -12 19 -26 26 -19 2 2 -2 10 -11 17 -9 8 -15 8 -15 2z"/>
<path d="M4005 3761 c11 -13 19 -26 18 -30 -2 -3 1 -6 6 -6 18 0 22 -13 10
-34 -17 -25 -7 -35 26 -27 37 9 31 26 -28 75 -28 25 -43 35 -32 22z"/>
<path d="M2316 3701 c-9 -14 -5 -211 3 -211 15 0 52 48 60 78 6 19 6 45 0 65
-10 38 -53 84 -63 68z"/>
<path d="M4000 3641 c0 -17 2 -31 4 -31 8 0 13 51 5 56 -5 3 -9 -9 -9 -25z"/>
<path d="M4094 3598 c-4 -7 -3 -8 5 -4 19 12 68 -4 107 -35 39 -30 54 -30 54
2 0 14 -7 19 -25 19 -14 0 -42 7 -62 15 -43 18 -69 19 -79 3z"/>
<path d="M4010 3600 c-4 -12 -8 -54 -4 -42 3 6 10 9 15 6 6 -3 5 -12 -3 -22
-7 -10 0 -6 15 7 32 29 34 34 8 26 -14 -4 -21 0 -24 12 -3 10 -6 16 -7 13z"/>
<path d="M3990 3509 c0 -5 5 -7 10 -4 6 3 10 8 10 11 0 2 -4 4 -10 4 -5 0 -10
-5 -10 -11z"/>
<path d="M2520 3492 c0 -7 4 -12 8 -12 5 0 9 -6 10 -12 0 -7 8 -33 17 -58 9
-25 17 -67 18 -94 1 -41 -3 -52 -27 -72 -24 -21 -25 -27 -6 -26 3 0 5 -24 5
-53 0 -29 -3 -51 -7 -48 -5 2 -8 -1 -8 -7 0 -20 28 -22 64 -5 75 36 86 149 27
269 -29 58 -101 143 -101 118z"/>
<path d="M2221 3424 c-61 -27 -163 -149 -117 -141 7 1 12 -26 14 -71 2 -40 7
-72 12 -70 12 4 140 168 153 196 9 19 6 27 -17 51 -26 27 -27 30 -9 40 26 15
4 12 -36 -5z"/>
<path d="M860 3355 c0 -5 5 -17 10 -25 5 -8 10 -10 10 -5 0 6 -5 17 -10 25 -5
8 -10 11 -10 5z"/>
<path d="M4000 3322 c13 -18 29 -31 35 -29 7 3 9 -69 7 -225 -2 -176 0 -234
10 -246 7 -9 9 -13 3 -10 -5 3 -19 -3 -29 -13 -28 -28 -10 -23 53 12 121 68
203 160 253 281 39 97 35 110 -6 17 -57 -131 -103 -187 -140 -173 -24 9 -39
76 -25 111 7 15 16 51 20 78 5 28 11 66 14 85 4 25 0 44 -14 68 -20 31 -23 32
-85 32 -50 0 -69 5 -92 22 l-28 23 24 -33z"/>
<path d="M894 3266 c4 -12 0 -23 -11 -32 -12 -9 -14 -13 -5 -14 7 0 11 -4 7
-9 -6 -11 57 -57 134 -95 l53 -28 -67 64 c-38 35 -72 62 -77 60 -5 -1 -7 1 -4
6 3 4 -4 21 -16 38 -11 16 -17 21 -14 10z m71 -96 c3 -5 1 -10 -4 -10 -6 0
-11 5 -11 10 0 6 2 10 4 10 3 0 8 -4 11 -10z"/>
<path d="M2100 3109 c0 -5 5 -7 10 -4 6 3 10 8 10 11 0 2 -4 4 -10 4 -5 0 -10
-5 -10 -11z"/>
<path d="M868 2908 c15 -25 20 -53 21 -117 1 -76 4 -87 30 -120 40 -51 137
-203 183 -286 21 -38 38 -67 38 -63 0 17 -78 226 -120 321 -46 102 -155 297
-166 297 -3 0 3 -15 14 -32z"/>
<path d="M4147 2777 c-26 -121 -98 -291 -156 -366 -35 -44 -36 -48 -31 -113 3
-36 2 -64 -2 -61 -5 2 -8 -3 -8 -11 0 -30 17 -16 75 62 105 141 139 252 133
432 -2 78 -4 88 -11 57z"/>
<path d="M860 2750 c0 -5 5 -10 11 -10 5 0 7 5 4 10 -3 6 -8 10 -11 10 -2 0
-4 -4 -4 -10z"/>
<path d="M3913 2455 c0 -22 2 -30 4 -17 2 12 2 30 0 40 -3 9 -5 -1 -4 -23z"/>
<path d="M2520 2339 c0 -5 5 -7 10 -4 6 3 10 8 10 11 0 2 -4 4 -10 4 -5 0 -10
-5 -10 -11z"/>
<path d="M2541 2304 c0 -11 3 -14 6 -6 3 7 2 16 -1 19 -3 4 -6 -2 -5 -13z"/>
<path d="M960 2286 c0 -2 7 -6 15 -10 8 -3 15 -1 15 4 0 6 -7 10 -15 10 -8 0
-15 -2 -15 -4z"/>
<path d="M2553 2245 c-6 -7 -9 -15 -6 -18 3 -3 1 -19 -5 -35 -8 -24 -6 -37 11
-70 11 -23 25 -38 30 -35 6 3 7 1 3 -6 -6 -10 118 -241 129 -241 2 0 -8 28
-22 63 -14 34 -49 128 -77 208 -40 114 -54 144 -63 134z"/>
<path d="M971 2234 c0 -12 7 -28 17 -35 15 -12 16 -12 6 1 -7 8 -14 24 -17 35
-4 19 -5 19 -6 -1z"/>
<path d="M1018 2233 c6 -2 10 -9 7 -13 -3 -5 17 -27 45 -51 27 -23 52 -50 55
-60 10 -31 -13 -58 -60 -72 -41 -12 -44 -14 -32 -31 10 -13 20 -16 35 -12 13
4 19 12 16 18 -4 6 -2 8 4 4 6 -3 13 -2 17 4 10 16 49 12 96 -10 24 -11 57
-20 72 -20 62 0 85 -40 51 -88 -21 -31 -44 -28 -97 13 -26 20 -59 38 -74 40
-32 6 -79 -16 -75 -34 1 -7 -2 -10 -6 -7 -14 8 -45 -31 -36 -45 4 -7 3 -10 -3
-6 -6 4 -14 0 -17 -9 -10 -26 -7 -102 4 -109 7 -4 8 3 4 22 -4 15 -4 25 0 22
11 -10 17 -119 7 -119 -5 0 -7 10 -5 23 4 20 4 20 -5 2 -8 -19 -9 -19 -13 5
-5 21 -5 22 -7 4 -2 -36 25 -48 108 -49 42 -1 82 -4 89 -8 6 -5 24 -28 38 -53
21 -35 25 -52 20 -87 -15 -114 -26 -175 -39 -210 -16 -45 -9 -100 15 -105 27
-5 94 83 129 171 18 45 45 108 61 139 24 48 28 70 28 136 0 181 -73 353 -207
485 -87 86 -139 117 -193 116 -25 0 -39 -3 -32 -6z m15 -403 c-3 -12 -8 -19
-11 -16 -5 6 5 36 12 36 2 0 2 -9 -1 -20z"/>
<path d="M3941 2169 c-6 -18 -11 -37 -10 -43 0 -6 7 7 15 28 8 22 12 41 10 43
-2 2 -9 -10 -15 -28z"/>
<path d="M1006 2171 c-4 -6 3 -15 14 -21 23 -12 27 2 6 19 -9 8 -16 8 -20 2z"/>
<path d="M1039 2113 c-5 -16 -17 -34 -26 -40 -15 -12 -14 -13 9 -13 38 0 78
17 78 33 0 14 -31 47 -44 47 -3 0 -11 -12 -17 -27z"/>
<path d="M3927 2089 c-3 -12 -2 -31 3 -42 7 -18 9 -14 9 21 1 46 -4 54 -12 21z"/>
<path d="M3940 1986 c0 -22 7 -47 15 -56 13 -14 12 -20 -5 -53 -21 -39 -27
-107 -10 -107 16 0 12 -50 -5 -56 -12 -5 -11 -12 8 -44 12 -21 26 -36 31 -33
5 4 6 1 3 -4 -4 -6 11 -48 32 -94 22 -46 58 -145 81 -219 59 -191 61 -193 55
-55 -8 191 -27 265 -169 660 -31 88 -36 95 -36 61z m20 -309 c0 -5 -4 -5 -10
-2 -5 3 -10 14 -10 23 0 15 2 15 10 2 5 -8 10 -19 10 -23z"/>
<path d="M1117 1996 c-15 -12 -12 -14 33 -18 36 -4 59 -13 78 -30 15 -14 37
-31 50 -37 20 -11 23 -9 32 14 13 35 14 35 -17 35 -24 1 -85 19 -143 43 -8 4
-23 0 -33 -7z"/>
<path d="M1012 1974 c10 -10 20 -16 22 -13 3 3 -5 11 -17 18 -21 13 -21 12 -5
-5z"/>
<path d="M973 1815 c0 -22 2 -30 4 -17 2 12 2 30 0 40 -3 9 -5 -1 -4 -23z"/>
<path d="M962 1695 c0 -16 2 -22 5 -12 2 9 2 23 0 30 -3 6 -5 -1 -5 -18z"/>
<path d="M1038 1618 c12 -5 9 -7 -13 -9 -23 -1 -25 -3 -8 -6 19 -4 21 -9 16
-46 -10 -84 -8 -557 2 -557 6 -1 -1 -7 -15 -16 l-25 -15 25 7 c87 22 227 132
300 237 46 65 99 178 115 242 11 46 0 28 -39 -68 -58 -147 -117 -227 -166
-227 -43 0 -63 83 -36 150 9 22 16 61 16 86 0 25 7 58 15 75 18 34 8 91 -24
131 -17 21 -27 23 -100 23 -44 0 -72 -3 -63 -7z"/>
<path d="M1013 1485 c0 -22 2 -30 4 -17 2 12 2 30 0 40 -3 9 -5 -1 -4 -23z"/>
<path d="M1860 835 c17 -21 14 -296 -3 -307 -7 -4 -7 -8 -2 -8 23 0 83 51 99
83 21 45 21 119 0 163 -16 34 -50 64 -88 78 -16 5 -17 4 -6 -9z"/>
<path d="M3705 739 c-32 -63 -37 -81 -40 -160 -2 -49 -7 -95 -11 -102 -4 -6
-3 -8 1 -4 5 4 17 48 27 97 10 50 29 124 42 165 13 41 23 75 21 75 -2 0 -20
-32 -40 -71z"/>
<path d="M3889 701 c-8 -11 -35 -43 -60 -73 -40 -45 -47 -61 -51 -106 l-5 -54
51 99 c29 54 60 110 70 126 21 30 16 38 -5 8z"/>
<path d="M1962 492 c-27 -27 -43 -54 -51 -88 -7 -27 -23 -74 -37 -104 -13 -30
-17 -46 -9 -36 8 11 18 17 21 13 4 -4 1 -14 -7 -24 -12 -15 -12 -16 4 -10 10
4 16 3 12 -2 -3 -5 -6 -27 -7 -50 -1 -22 -5 -38 -10 -35 -4 3 -8 0 -8 -5 0
-14 3 -14 34 0 14 7 23 16 19 22 -3 6 -1 7 5 3 15 -9 80 50 103 95 22 44 49
150 49 196 0 22 -7 37 -22 47 -34 24 -55 19 -96 -22z"/>
<path d="M3651 434 c0 -11 3 -14 6 -6 3 7 2 16 -1 19 -3 4 -6 -2 -5 -13z"/>
<path d="M2819 332 c7 -5 21 -8 30 -7 9 1 10 0 4 -2 -8 -3 -13 -21 -13 -44 0
-28 -4 -39 -15 -39 -8 0 -15 -9 -15 -20 0 -11 7 -20 15 -20 12 0 15 -13 15
-60 l0 -60 38 -2 c20 0 49 -2 63 -3 l27 -2 -19 41 c-27 59 -25 139 3 166 12
11 33 20 47 21 22 0 20 3 -13 15 -47 17 -188 31 -167 16z"/>
<path d="M3490 240 c-8 -6 -32 -15 -52 -20 -37 -10 -38 -12 -38 -55 0 -25 5
-45 10 -45 6 0 10 -10 10 -22 1 -14 8 -1 19 29 9 28 30 67 45 87 29 38 30 41
6 26z"/>
<path d="M1135 161 c5 -34 12 -48 19 -40 2 2 -3 20 -10 39 l-14 35 5 -34z"/>
<path d="M1475 120 c-27 -5 -32 -8 -15 -9 14 0 49 -4 78 -7 44 -6 52 -4 52 10
0 17 -39 20 -115 6z"/>
<path d="M3395 71 c-2 -4 10 -8 26 -9 16 -1 29 -1 29 2 0 7 -50 13 -55 7z"/>
</g>
</svg>
